<svg width="37" height="42" viewBox="0 0 37 42" fill="none" xmlns="http://www.w3.org/2000/svg">
<mask id="path-1-outside-1_140_2" maskUnits="userSpaceOnUse" x="-0.725464" y="-0.882568" width="37" height="42" fill="black">
<rect fill="white" x="-0.725464" y="-0.882568" width="37" height="42"/>
<path d="M0.822672 40.9916C0.370275 40.7309 0.245867 40.337 0.279797 39.8214C0.619094 35.1753 2.65488 31.6299 6.78866 29.5501C8.08364 28.9013 9.51434 28.5305 10.8942 28.0671C11.2674 27.9396 11.5049 27.7542 11.6689 27.3835C11.9969 26.6362 12.3758 25.9062 12.6868 25.2748C12.1552 24.429 11.6745 23.6469 11.1712 22.8822C11.1034 22.7837 10.9281 22.7374 10.7924 22.7084C10.3513 22.6215 9.87061 22.6389 9.46345 22.4709C8.56431 22.0943 8.12888 21.3296 8.07233 20.3448C8.05536 20.0262 8.07233 19.7075 8.07233 19.3889C6.90741 18.8675 6.47198 17.9464 6.50025 16.7009C6.55115 14.8007 6.46066 12.889 6.59073 10.9946C6.79996 8.01112 8.03275 5.46792 10.159 3.41135C12.7546 0.908697 15.8649 -0.174625 19.4049 0.184552C22.6339 0.514762 25.2804 2.02678 27.3218 4.60474C29.1088 6.86408 29.9174 9.47679 29.9005 12.3734C29.8948 13.8622 29.9005 15.3569 29.9005 16.8457C29.9005 18.5199 28.9448 19.5048 27.3162 19.5106C26.9429 19.5106 26.564 19.5106 26.1286 19.5106C25.9081 21.6656 25.1616 23.5832 23.6631 25.1531C24.0872 26.0279 24.5 26.8911 24.9298 27.7369C24.992 27.8527 25.1616 27.9338 25.2973 27.9802C26.4114 28.3683 27.5424 28.7333 28.6507 29.1388C31.9193 30.3322 34.0625 32.7016 35.3405 35.94C35.8325 37.1855 36.0587 38.489 36.1322 39.8272C36.1605 40.3428 36.0361 40.7367 35.5894 40.9974H0.811364L0.822672 40.9916ZM25.1842 13.6884C24.9693 13.6479 24.8054 13.6247 24.647 13.5899C23.9967 13.4683 23.3351 13.3814 22.6961 13.2192C20.3775 12.6457 18.3417 11.5276 16.5661 9.8939C16.453 9.78963 16.272 9.70273 16.1306 9.71432C15.1241 9.80701 14.2193 10.172 13.405 10.7803C12.5737 11.3943 12.0308 12.2633 11.437 13.0801C11.3239 13.2308 11.2561 13.4683 11.2674 13.6595C11.4201 15.409 11.5727 17.1585 11.765 18.9023C11.8442 19.638 12.0082 20.3564 12.1382 21.0979C12.8564 21.0979 13.5011 21.0921 14.1514 21.0979C14.3606 21.0979 14.4624 21.04 14.5642 20.8372C14.994 19.9624 15.7122 19.5222 16.6622 19.499C17.1825 19.4816 17.7027 19.4816 18.223 19.499C19.5462 19.5453 20.5528 20.5881 20.5528 21.8973C20.5528 23.2066 19.5349 24.2436 18.2117 24.2841C17.7423 24.2957 17.2786 24.2841 16.8092 24.2841C15.78 24.2841 15.011 23.8496 14.5416 22.8938C14.502 22.8127 14.4115 22.7026 14.338 22.6968C13.8687 22.6794 13.3993 22.6852 12.8734 22.6852C13.5916 23.8902 14.4907 24.7823 15.6726 25.3211C19.3822 27.0069 23.2446 24.8345 24.2681 20.9241C24.6131 19.5975 24.7375 18.2013 24.9128 16.8341C25.0485 15.7971 25.0994 14.7486 25.1899 13.6768L25.1842 13.6884ZM11.5105 29.527C10.4983 29.8745 9.56524 30.2163 8.62652 30.5118C6.17792 31.2823 4.39095 32.8696 3.1412 35.1289C2.41737 36.4382 1.9876 37.8459 1.88015 39.3753H16.8432C14.7395 36.2354 12.6698 33.1593 11.5162 29.527H11.5105ZM19.6254 39.3696H34.5488C34.5036 39.0393 34.481 38.7323 34.4244 38.4369C33.7572 35.0652 32.0494 32.4699 28.9617 30.9926C27.7686 30.4249 26.4736 30.0831 25.2238 29.6428C25.1333 29.6081 25.0316 29.5965 25.0429 29.5965C24.2172 31.3112 23.4877 33.0144 22.5943 34.6307C21.7008 36.2412 20.6433 37.7648 19.6254 39.3753V39.3696ZM25.1786 12.0432C25.1786 12.0432 25.2125 11.991 25.2125 11.9679C25.4896 9.20452 23.7875 6.38324 21.2597 5.35206C20.0382 4.85384 18.7715 4.85385 17.4991 4.8886C15.0053 4.95812 13.1448 6.12834 11.929 8.35292C11.5558 9.03072 11.3183 9.76645 11.2617 10.5601C11.3126 10.5601 11.3296 10.5601 11.3409 10.5601C11.3974 10.508 11.454 10.45 11.5049 10.3921C12.7603 9.01913 14.3097 8.2892 16.125 8.09223C16.6735 8.0343 17.092 8.18492 17.4935 8.57306C19.648 10.6644 22.2437 11.7477 25.1786 12.0374V12.0432ZM28.2718 11.2553C28.0626 6.57442 24.0872 1.72553 18.2456 1.69657C12.4266 1.6734 8.37204 6.46435 8.14019 11.2495H9.61613C9.62745 11.0989 9.63875 10.9714 9.65006 10.8382C9.98936 7.44339 11.6972 5.08557 14.7791 3.7937C16.2777 3.16803 17.8611 3.21438 19.4275 3.31286C22.7639 3.51562 25.6197 5.92558 26.4792 9.22769C26.6489 9.88811 26.728 10.5717 26.8468 11.2495H28.2662L28.2718 11.2553ZM18.1608 31.2186C18.1042 31.2533 18.0646 31.2707 18.0364 31.2939C17.1938 32.1976 16.3625 33.1129 15.5143 34.0109C15.3276 34.2078 15.4294 34.3295 15.5312 34.4917C16.3682 35.801 17.2051 37.116 18.0477 38.4253C18.0929 38.4948 18.1551 38.5527 18.206 38.6164C19.0034 37.3883 19.7951 36.1891 20.5698 34.9783C21.0674 34.1962 21.0561 34.1905 20.4058 33.5242C19.6537 32.7537 18.9016 31.9891 18.1551 31.2186H18.1608ZM21.8704 32.6553C21.8704 32.6553 21.893 32.6437 21.9044 32.6263C22.4529 31.3402 22.9958 30.0483 23.5386 28.7565C23.5669 28.6869 23.5952 28.5885 23.5669 28.5305C23.2389 27.8353 22.8996 27.146 22.5434 26.416C21.4067 27.6442 20.3153 28.8318 19.2578 29.9788C20.1513 30.8941 21.0109 31.7747 21.8704 32.6553ZM14.502 32.7943C15.4068 31.8153 16.2098 30.9405 16.9393 30.1526C15.8253 29.0114 14.7452 27.9107 13.6764 26.8157C13.4389 27.3024 13.1674 27.8469 12.9073 28.3973C12.8621 28.4958 12.8282 28.6406 12.8621 28.7275C13.388 30.0541 13.9196 31.375 14.4964 32.7943H14.502ZM10.012 17.9001C9.88192 16.2027 9.75185 14.5574 9.62744 12.9006H8.07799C8.07799 14.3083 8.06668 15.6871 8.07799 17.0716C8.07799 17.5641 8.38335 17.8711 8.85271 17.9001C9.22594 17.9232 9.59917 17.9001 10.0063 17.9001H10.012ZM26.7959 12.8832C26.6658 14.5632 26.5414 16.2085 26.4114 17.9059C26.7394 17.9059 27.0617 17.9059 27.384 17.9059C28.0626 17.9001 28.3454 17.6046 28.351 16.9036C28.351 15.6697 28.351 14.4357 28.351 13.2018C28.351 13.1033 28.3341 12.999 28.3227 12.889H26.8016L26.7959 12.8832ZM17.3917 22.6968C17.6631 22.6968 17.9402 22.7142 18.2117 22.6968C18.6641 22.6678 18.9864 22.326 18.9864 21.9031C18.9864 21.4802 18.6641 21.1327 18.2117 21.1153C17.6914 21.0921 17.1712 21.0921 16.6566 21.1153C16.2042 21.1327 15.8818 21.486 15.8818 21.9031C15.8818 22.326 16.2042 22.662 16.6566 22.6968C16.8997 22.7142 17.1485 22.6968 17.3974 22.6968H17.3917ZM18.1495 28.8434C18.5566 28.4031 18.9807 27.9396 19.4501 27.4298H16.7753C17.1881 27.8527 17.6575 28.3394 18.1495 28.8434ZM9.67268 19.5222C9.51435 20.3911 9.68965 21.179 10.5322 21.0515C10.487 20.8024 10.4474 20.5591 10.4022 20.31C10.3569 20.0493 10.3117 19.7944 10.2608 19.5222H9.67268Z"/>
</mask>
<path d="M0.822672 40.9916C0.370275 40.7309 0.245867 40.337 0.279797 39.8214C0.619094 35.1753 2.65488 31.6299 6.78866 29.5501C8.08364 28.9013 9.51434 28.5305 10.8942 28.0671C11.2674 27.9396 11.5049 27.7542 11.6689 27.3835C11.9969 26.6362 12.3758 25.9062 12.6868 25.2748C12.1552 24.429 11.6745 23.6469 11.1712 22.8822C11.1034 22.7837 10.9281 22.7374 10.7924 22.7084C10.3513 22.6215 9.87061 22.6389 9.46345 22.4709C8.56431 22.0943 8.12888 21.3296 8.07233 20.3448C8.05536 20.0262 8.07233 19.7075 8.07233 19.3889C6.90741 18.8675 6.47198 17.9464 6.50025 16.7009C6.55115 14.8007 6.46066 12.889 6.59073 10.9946C6.79996 8.01112 8.03275 5.46792 10.159 3.41135C12.7546 0.908697 15.8649 -0.174625 19.4049 0.184552C22.6339 0.514762 25.2804 2.02678 27.3218 4.60474C29.1088 6.86408 29.9174 9.47679 29.9005 12.3734C29.8948 13.8622 29.9005 15.3569 29.9005 16.8457C29.9005 18.5199 28.9448 19.5048 27.3162 19.5106C26.9429 19.5106 26.564 19.5106 26.1286 19.5106C25.9081 21.6656 25.1616 23.5832 23.6631 25.1531C24.0872 26.0279 24.5 26.8911 24.9298 27.7369C24.992 27.8527 25.1616 27.9338 25.2973 27.9802C26.4114 28.3683 27.5424 28.7333 28.6507 29.1388C31.9193 30.3322 34.0625 32.7016 35.3405 35.94C35.8325 37.1855 36.0587 38.489 36.1322 39.8272C36.1605 40.3428 36.0361 40.7367 35.5894 40.9974H0.811364L0.822672 40.9916ZM25.1842 13.6884C24.9693 13.6479 24.8054 13.6247 24.647 13.5899C23.9967 13.4683 23.3351 13.3814 22.6961 13.2192C20.3775 12.6457 18.3417 11.5276 16.5661 9.8939C16.453 9.78963 16.272 9.70273 16.1306 9.71432C15.1241 9.80701 14.2193 10.172 13.405 10.7803C12.5737 11.3943 12.0308 12.2633 11.437 13.0801C11.3239 13.2308 11.2561 13.4683 11.2674 13.6595C11.4201 15.409 11.5727 17.1585 11.765 18.9023C11.8442 19.638 12.0082 20.3564 12.1382 21.0979C12.8564 21.0979 13.5011 21.0921 14.1514 21.0979C14.3606 21.0979 14.4624 21.04 14.5642 20.8372C14.994 19.9624 15.7122 19.5222 16.6622 19.499C17.1825 19.4816 17.7027 19.4816 18.223 19.499C19.5462 19.5453 20.5528 20.5881 20.5528 21.8973C20.5528 23.2066 19.5349 24.2436 18.2117 24.2841C17.7423 24.2957 17.2786 24.2841 16.8092 24.2841C15.78 24.2841 15.011 23.8496 14.5416 22.8938C14.502 22.8127 14.4115 22.7026 14.338 22.6968C13.8687 22.6794 13.3993 22.6852 12.8734 22.6852C13.5916 23.8902 14.4907 24.7823 15.6726 25.3211C19.3822 27.0069 23.2446 24.8345 24.2681 20.9241C24.6131 19.5975 24.7375 18.2013 24.9128 16.8341C25.0485 15.7971 25.0994 14.7486 25.1899 13.6768L25.1842 13.6884ZM11.5105 29.527C10.4983 29.8745 9.56524 30.2163 8.62652 30.5118C6.17792 31.2823 4.39095 32.8696 3.1412 35.1289C2.41737 36.4382 1.9876 37.8459 1.88015 39.3753H16.8432C14.7395 36.2354 12.6698 33.1593 11.5162 29.527H11.5105ZM19.6254 39.3696H34.5488C34.5036 39.0393 34.481 38.7323 34.4244 38.4369C33.7572 35.0652 32.0494 32.4699 28.9617 30.9926C27.7686 30.4249 26.4736 30.0831 25.2238 29.6428C25.1333 29.6081 25.0316 29.5965 25.0429 29.5965C24.2172 31.3112 23.4877 33.0144 22.5943 34.6307C21.7008 36.2412 20.6433 37.7648 19.6254 39.3753V39.3696ZM25.1786 12.0432C25.1786 12.0432 25.2125 11.991 25.2125 11.9679C25.4896 9.20452 23.7875 6.38324 21.2597 5.35206C20.0382 4.85384 18.7715 4.85385 17.4991 4.8886C15.0053 4.95812 13.1448 6.12834 11.929 8.35292C11.5558 9.03072 11.3183 9.76645 11.2617 10.5601C11.3126 10.5601 11.3296 10.5601 11.3409 10.5601C11.3974 10.508 11.454 10.45 11.5049 10.3921C12.7603 9.01913 14.3097 8.2892 16.125 8.09223C16.6735 8.0343 17.092 8.18492 17.4935 8.57306C19.648 10.6644 22.2437 11.7477 25.1786 12.0374V12.0432ZM28.2718 11.2553C28.0626 6.57442 24.0872 1.72553 18.2456 1.69657C12.4266 1.6734 8.37204 6.46435 8.14019 11.2495H9.61613C9.62745 11.0989 9.63875 10.9714 9.65006 10.8382C9.98936 7.44339 11.6972 5.08557 14.7791 3.7937C16.2777 3.16803 17.8611 3.21438 19.4275 3.31286C22.7639 3.51562 25.6197 5.92558 26.4792 9.22769C26.6489 9.88811 26.728 10.5717 26.8468 11.2495H28.2662L28.2718 11.2553ZM18.1608 31.2186C18.1042 31.2533 18.0646 31.2707 18.0364 31.2939C17.1938 32.1976 16.3625 33.1129 15.5143 34.0109C15.3276 34.2078 15.4294 34.3295 15.5312 34.4917C16.3682 35.801 17.2051 37.116 18.0477 38.4253C18.0929 38.4948 18.1551 38.5527 18.206 38.6164C19.0034 37.3883 19.7951 36.1891 20.5698 34.9783C21.0674 34.1962 21.0561 34.1905 20.4058 33.5242C19.6537 32.7537 18.9016 31.9891 18.1551 31.2186H18.1608ZM21.8704 32.6553C21.8704 32.6553 21.893 32.6437 21.9044 32.6263C22.4529 31.3402 22.9958 30.0483 23.5386 28.7565C23.5669 28.6869 23.5952 28.5885 23.5669 28.5305C23.2389 27.8353 22.8996 27.146 22.5434 26.416C21.4067 27.6442 20.3153 28.8318 19.2578 29.9788C20.1513 30.8941 21.0109 31.7747 21.8704 32.6553ZM14.502 32.7943C15.4068 31.8153 16.2098 30.9405 16.9393 30.1526C15.8253 29.0114 14.7452 27.9107 13.6764 26.8157C13.4389 27.3024 13.1674 27.8469 12.9073 28.3973C12.8621 28.4958 12.8282 28.6406 12.8621 28.7275C13.388 30.0541 13.9196 31.375 14.4964 32.7943H14.502ZM10.012 17.9001C9.88192 16.2027 9.75185 14.5574 9.62744 12.9006H8.07799C8.07799 14.3083 8.06668 15.6871 8.07799 17.0716C8.07799 17.5641 8.38335 17.8711 8.85271 17.9001C9.22594 17.9232 9.59917 17.9001 10.0063 17.9001H10.012ZM26.7959 12.8832C26.6658 14.5632 26.5414 16.2085 26.4114 17.9059C26.7394 17.9059 27.0617 17.9059 27.384 17.9059C28.0626 17.9001 28.3454 17.6046 28.351 16.9036C28.351 15.6697 28.351 14.4357 28.351 13.2018C28.351 13.1033 28.3341 12.999 28.3227 12.889H26.8016L26.7959 12.8832ZM17.3917 22.6968C17.6631 22.6968 17.9402 22.7142 18.2117 22.6968C18.6641 22.6678 18.9864 22.326 18.9864 21.9031C18.9864 21.4802 18.6641 21.1327 18.2117 21.1153C17.6914 21.0921 17.1712 21.0921 16.6566 21.1153C16.2042 21.1327 15.8818 21.486 15.8818 21.9031C15.8818 22.326 16.2042 22.662 16.6566 22.6968C16.8997 22.7142 17.1485 22.6968 17.3974 22.6968H17.3917ZM18.1495 28.8434C18.5566 28.4031 18.9807 27.9396 19.4501 27.4298H16.7753C17.1881 27.8527 17.6575 28.3394 18.1495 28.8434ZM9.67268 19.5222C9.51435 20.3911 9.68965 21.179 10.5322 21.0515C10.487 20.8024 10.4474 20.5591 10.4022 20.31C10.3569 20.0493 10.3117 19.7944 10.2608 19.5222H9.67268Z" fill="#B8B8B8"/>
<path d="M0.822672 40.9916C0.370275 40.7309 0.245867 40.337 0.279797 39.8214C0.619094 35.1753 2.65488 31.6299 6.78866 29.5501C8.08364 28.9013 9.51434 28.5305 10.8942 28.0671C11.2674 27.9396 11.5049 27.7542 11.6689 27.3835C11.9969 26.6362 12.3758 25.9062 12.6868 25.2748C12.1552 24.429 11.6745 23.6469 11.1712 22.8822C11.1034 22.7837 10.9281 22.7374 10.7924 22.7084C10.3513 22.6215 9.87061 22.6389 9.46345 22.4709C8.56431 22.0943 8.12888 21.3296 8.07233 20.3448C8.05536 20.0262 8.07233 19.7075 8.07233 19.3889C6.90741 18.8675 6.47198 17.9464 6.50025 16.7009C6.55115 14.8007 6.46066 12.889 6.59073 10.9946C6.79996 8.01112 8.03275 5.46792 10.159 3.41135C12.7546 0.908697 15.8649 -0.174625 19.4049 0.184552C22.6339 0.514762 25.2804 2.02678 27.3218 4.60474C29.1088 6.86408 29.9174 9.47679 29.9005 12.3734C29.8948 13.8622 29.9005 15.3569 29.9005 16.8457C29.9005 18.5199 28.9448 19.5048 27.3162 19.5106C26.9429 19.5106 26.564 19.5106 26.1286 19.5106C25.9081 21.6656 25.1616 23.5832 23.6631 25.1531C24.0872 26.0279 24.5 26.8911 24.9298 27.7369C24.992 27.8527 25.1616 27.9338 25.2973 27.9802C26.4114 28.3683 27.5424 28.7333 28.6507 29.1388C31.9193 30.3322 34.0625 32.7016 35.3405 35.94C35.8325 37.1855 36.0587 38.489 36.1322 39.8272C36.1605 40.3428 36.0361 40.7367 35.5894 40.9974H0.811364L0.822672 40.9916ZM25.1842 13.6884C24.9693 13.6479 24.8054 13.6247 24.647 13.5899C23.9967 13.4683 23.3351 13.3814 22.6961 13.2192C20.3775 12.6457 18.3417 11.5276 16.5661 9.8939C16.453 9.78963 16.272 9.70273 16.1306 9.71432C15.1241 9.80701 14.2193 10.172 13.405 10.7803C12.5737 11.3943 12.0308 12.2633 11.437 13.0801C11.3239 13.2308 11.2561 13.4683 11.2674 13.6595C11.4201 15.409 11.5727 17.1585 11.765 18.9023C11.8442 19.638 12.0082 20.3564 12.1382 21.0979C12.8564 21.0979 13.5011 21.0921 14.1514 21.0979C14.3606 21.0979 14.4624 21.04 14.5642 20.8372C14.994 19.9624 15.7122 19.5222 16.6622 19.499C17.1825 19.4816 17.7027 19.4816 18.223 19.499C19.5462 19.5453 20.5528 20.5881 20.5528 21.8973C20.5528 23.2066 19.5349 24.2436 18.2117 24.2841C17.7423 24.2957 17.2786 24.2841 16.8092 24.2841C15.78 24.2841 15.011 23.8496 14.5416 22.8938C14.502 22.8127 14.4115 22.7026 14.338 22.6968C13.8687 22.6794 13.3993 22.6852 12.8734 22.6852C13.5916 23.8902 14.4907 24.7823 15.6726 25.3211C19.3822 27.0069 23.2446 24.8345 24.2681 20.9241C24.6131 19.5975 24.7375 18.2013 24.9128 16.8341C25.0485 15.7971 25.0994 14.7486 25.1899 13.6768L25.1842 13.6884ZM11.5105 29.527C10.4983 29.8745 9.56524 30.2163 8.62652 30.5118C6.17792 31.2823 4.39095 32.8696 3.1412 35.1289C2.41737 36.4382 1.9876 37.8459 1.88015 39.3753H16.8432C14.7395 36.2354 12.6698 33.1593 11.5162 29.527H11.5105ZM19.6254 39.3696H34.5488C34.5036 39.0393 34.481 38.7323 34.4244 38.4369C33.7572 35.0652 32.0494 32.4699 28.9617 30.9926C27.7686 30.4249 26.4736 30.0831 25.2238 29.6428C25.1333 29.6081 25.0316 29.5965 25.0429 29.5965C24.2172 31.3112 23.4877 33.0144 22.5943 34.6307C21.7008 36.2412 20.6433 37.7648 19.6254 39.3753V39.3696ZM25.1786 12.0432C25.1786 12.0432 25.2125 11.991 25.2125 11.9679C25.4896 9.20452 23.7875 6.38324 21.2597 5.35206C20.0382 4.85384 18.7715 4.85385 17.4991 4.8886C15.0053 4.95812 13.1448 6.12834 11.929 8.35292C11.5558 9.03072 11.3183 9.76645 11.2617 10.5601C11.3126 10.5601 11.3296 10.5601 11.3409 10.5601C11.3974 10.508 11.454 10.45 11.5049 10.3921C12.7603 9.01913 14.3097 8.2892 16.125 8.09223C16.6735 8.0343 17.092 8.18492 17.4935 8.57306C19.648 10.6644 22.2437 11.7477 25.1786 12.0374V12.0432ZM28.2718 11.2553C28.0626 6.57442 24.0872 1.72553 18.2456 1.69657C12.4266 1.6734 8.37204 6.46435 8.14019 11.2495H9.61613C9.62745 11.0989 9.63875 10.9714 9.65006 10.8382C9.98936 7.44339 11.6972 5.08557 14.7791 3.7937C16.2777 3.16803 17.8611 3.21438 19.4275 3.31286C22.7639 3.51562 25.6197 5.92558 26.4792 9.22769C26.6489 9.88811 26.728 10.5717 26.8468 11.2495H28.2662L28.2718 11.2553ZM18.1608 31.2186C18.1042 31.2533 18.0646 31.2707 18.0364 31.2939C17.1938 32.1976 16.3625 33.1129 15.5143 34.0109C15.3276 34.2078 15.4294 34.3295 15.5312 34.4917C16.3682 35.801 17.2051 37.116 18.0477 38.4253C18.0929 38.4948 18.1551 38.5527 18.206 38.6164C19.0034 37.3883 19.7951 36.1891 20.5698 34.9783C21.0674 34.1962 21.0561 34.1905 20.4058 33.5242C19.6537 32.7537 18.9016 31.9891 18.1551 31.2186H18.1608ZM21.8704 32.6553C21.8704 32.6553 21.893 32.6437 21.9044 32.6263C22.4529 31.3402 22.9958 30.0483 23.5386 28.7565C23.5669 28.6869 23.5952 28.5885 23.5669 28.5305C23.2389 27.8353 22.8996 27.146 22.5434 26.416C21.4067 27.6442 20.3153 28.8318 19.2578 29.9788C20.1513 30.8941 21.0109 31.7747 21.8704 32.6553ZM14.502 32.7943C15.4068 31.8153 16.2098 30.9405 16.9393 30.1526C15.8253 29.0114 14.7452 27.9107 13.6764 26.8157C13.4389 27.3024 13.1674 27.8469 12.9073 28.3973C12.8621 28.4958 12.8282 28.6406 12.8621 28.7275C13.388 30.0541 13.9196 31.375 14.4964 32.7943H14.502ZM10.012 17.9001C9.88192 16.2027 9.75185 14.5574 9.62744 12.9006H8.07799C8.07799 14.3083 8.06668 15.6871 8.07799 17.0716C8.07799 17.5641 8.38335 17.8711 8.85271 17.9001C9.22594 17.9232 9.59917 17.9001 10.0063 17.9001H10.012ZM26.7959 12.8832C26.6658 14.5632 26.5414 16.2085 26.4114 17.9059C26.7394 17.9059 27.0617 17.9059 27.384 17.9059C28.0626 17.9001 28.3454 17.6046 28.351 16.9036C28.351 15.6697 28.351 14.4357 28.351 13.2018C28.351 13.1033 28.3341 12.999 28.3227 12.889H26.8016L26.7959 12.8832ZM17.3917 22.6968C17.6631 22.6968 17.9402 22.7142 18.2117 22.6968C18.6641 22.6678 18.9864 22.326 18.9864 21.9031C18.9864 21.4802 18.6641 21.1327 18.2117 21.1153C17.6914 21.0921 17.1712 21.0921 16.6566 21.1153C16.2042 21.1327 15.8818 21.486 15.8818 21.9031C15.8818 22.326 16.2042 22.662 16.6566 22.6968C16.8997 22.7142 17.1485 22.6968 17.3974 22.6968H17.3917ZM18.1495 28.8434C18.5566 28.4031 18.9807 27.9396 19.4501 27.4298H16.7753C17.1881 27.8527 17.6575 28.3394 18.1495 28.8434ZM9.67268 19.5222C9.51435 20.3911 9.68965 21.179 10.5322 21.0515C10.487 20.8024 10.4474 20.5591 10.4022 20.31C10.3569 20.0493 10.3117 19.7944 10.2608 19.5222H9.67268Z" stroke="#B8B8B8" stroke-width="0.2" mask="url(#path-1-outside-1_140_2)"/>
</svg>
