<svg width="14" height="13" viewBox="0 0 14 13" fill="none" xmlns="http://www.w3.org/2000/svg">
<path d="M13.4242 1.28701C13.5347 1.65626 13.505 2.05379 13.2149 2.42143C12.7369 3.02662 12.2708 3.63989 11.7929 4.24507C11.4739 4.64988 11.1405 5.04418 10.8207 5.44818C10.5086 5.84248 10.21 6.24729 9.89789 6.64159C9.58235 7.04074 9.2566 7.43261 8.93851 7.83015C8.72588 8.09598 8.52345 8.36908 8.31167 8.63491C7.88556 9.17061 7.45435 9.70308 7.02909 10.2388C6.69398 10.6614 6.36993 11.0912 6.03058 11.5098C5.8188 11.7707 5.63848 12.0543 5.32379 12.2361C4.78796 12.544 4.09649 12.4446 3.66698 12.0374C2.80965 11.2245 1.96594 10.398 1.11031 9.58269C0.833892 9.32009 0.543014 9.07688 0.412033 8.70682C0.231723 8.19617 0.464766 7.56593 0.924898 7.26294C1.5024 6.88318 2.29169 6.99468 2.74671 7.46332C3.28509 8.01841 3.8609 8.54038 4.41714 9.07931C4.48093 9.14072 4.5124 9.11244 4.55152 9.06234C4.82369 8.7141 5.095 8.36504 5.37057 8.01841C5.96253 7.27425 6.56045 6.53332 7.15071 5.78754C7.85494 4.89713 8.55237 4.00187 9.2566 3.11227C9.56194 2.72604 9.88003 2.34952 10.1879 1.96411C10.4703 1.6102 10.7518 1.25469 11.024 0.89432C11.3327 0.486282 12.0208 0.238228 12.5745 0.453155C12.9759 0.609098 13.2489 0.855536 13.425 1.2862L13.4242 1.28701Z" fill="white"/>
</svg>
