<svg width="38" height="35" viewBox="0 0 38 35" fill="none" xmlns="http://www.w3.org/2000/svg">
<path d="M4.51581 0.566209C6.87646 0.522296 9.54665 0.507126 12.8327 0.561418C13.8408 0.578185 14.7078 1.10754 15.429 1.684C17.4495 3.29881 19.2734 5.58709 21.2776 7.19591C21.3873 7.28414 21.4954 7.37556 21.6253 7.43464L33.3074 7.45301C34.8022 7.65261 36.0833 8.82829 36.3833 10.3142C36.5601 17.3954 36.5581 24.5464 36.3841 31.6289C35.9688 33.302 34.6532 34.3662 32.9454 34.4928H4.78521C3.06111 34.3651 1.71409 33.2656 1.33343 31.569C1.12045 22.455 1.30045 13.309 1.24204 4.18346C1.37912 2.23771 2.5827 0.851645 4.51581 0.566209ZM4.43991 1.95946C3.4223 2.20817 2.7178 3.06008 2.628 4.10642V30.9286C2.7023 31.9977 3.54826 32.9962 4.63859 33.0964H33.0916C34.1828 32.9846 35.0263 32.0089 35.1022 30.9286V11.0128C35.0069 9.79518 34.2245 8.93967 33.0145 8.77519L21.1107 8.75923C20.928 8.68777 20.771 8.56521 20.6192 8.44505C18.7668 6.97635 16.9521 4.82659 15.1366 3.22655C14.4154 2.59101 13.7788 1.99938 12.7616 1.9391C10.0386 1.77782 7.52375 1.88361 4.43991 1.95946Z" fill="#B8B8B8"/>
<path d="M7.70019 26.1369C7.7586 26.0727 7.87185 26.0291 7.95092 25.9864L29.8386 25.9996C30.3758 26.2499 30.3062 26.9725 29.8159 27.2336L8.22191 27.2926C7.62112 27.3114 7.30205 26.5745 7.70019 26.1369Z" fill="#B8B8B8"/>
<path d="M7.77569 20.3356C7.84245 20.2685 7.93821 20.2226 8.02364 20.1823L29.7654 20.1955C30.3646 20.4813 30.2796 21.4051 29.5803 21.4865L8.22152 21.4885C7.60801 21.5348 7.39264 20.72 7.77569 20.3356Z" fill="#B8B8B8"/>
<path d="M8.09635 14.3758L18.0261 14.3566C18.9901 14.472 18.9134 15.7231 17.9514 15.7546H8.22509C7.36523 15.7319 7.25596 14.5283 8.09635 14.3758Z" fill="#B8B8B8"/>
<path d="M4.51581 0.566209C6.87646 0.522296 9.54665 0.507126 12.8327 0.561418C13.8408 0.578185 14.7078 1.10754 15.429 1.684C17.4495 3.29881 19.2734 5.58709 21.2776 7.19591C21.3873 7.28414 21.4954 7.37556 21.6253 7.43464L33.3074 7.45301C34.8022 7.65261 36.0833 8.82829 36.3833 10.3142C36.5601 17.3954 36.5581 24.5464 36.3841 31.6289C35.9688 33.302 34.6532 34.3662 32.9454 34.4928H4.78521C3.06111 34.3651 1.71409 33.2656 1.33343 31.569C1.12045 22.455 1.30045 13.309 1.24204 4.18346C1.37912 2.23771 2.5827 0.851645 4.51581 0.566209ZM4.43991 1.95946C3.4223 2.20817 2.7178 3.06008 2.628 4.10642V30.9286C2.7023 31.9977 3.54826 32.9962 4.63859 33.0964H33.0916C34.1828 32.9846 35.0263 32.0089 35.1022 30.9286V11.0128C35.0069 9.79518 34.2245 8.93967 33.0145 8.77519L21.1107 8.75923C20.928 8.68777 20.771 8.56521 20.6192 8.44505C18.7668 6.97635 16.9521 4.82659 15.1366 3.22655C14.4154 2.59101 13.7788 1.99938 12.7616 1.9391C10.0386 1.77782 7.52375 1.88361 4.43991 1.95946Z" stroke="#B8B8B8"/>
<path d="M7.70019 26.1369C7.7586 26.0727 7.87185 26.0291 7.95092 25.9864L29.8386 25.9996C30.3758 26.2499 30.3062 26.9725 29.8159 27.2336L8.22191 27.2926C7.62112 27.3114 7.30205 26.5745 7.70019 26.1369Z" stroke="#B8B8B8"/>
<path d="M7.77569 20.3356C7.84245 20.2685 7.93821 20.2226 8.02364 20.1823L29.7654 20.1955C30.3646 20.4813 30.2796 21.4051 29.5803 21.4865L8.22152 21.4885C7.60801 21.5348 7.39264 20.72 7.77569 20.3356Z" stroke="#B8B8B8"/>
<path d="M8.09635 14.3758L18.0261 14.3566C18.9901 14.472 18.9134 15.7231 17.9514 15.7546H8.22509C7.36523 15.7319 7.25596 14.5283 8.09635 14.3758Z" stroke="#B8B8B8"/>
</svg>
