<svg width="368" height="698" viewBox="0 0 368 698" fill="none" xmlns="http://www.w3.org/2000/svg">
<path d="M235.532 0.672241C221.513 0.672241 207.842 6.01514 196.309 15.9901L184.611 26.1026L172.914 15.9901C161.381 6.01514 147.692 0.672241 133.691 0.672241H38.778C18.2528 0.672241 1.60236 21.5623 1.60236 47.3137L0.542236 570.138C0.542236 590.34 10.7592 608.043 26.0023 614.417L180.17 674.336C181.23 674.749 182.309 674.955 183.405 675.093V675.138C183.405 675.138 183.515 675.138 183.551 675.115C183.551 725.943 183.643 675.115 183.698 675.138V675.093C184.794 674.955 185.873 674.749 186.933 674.336L341.1 614.417C356.344 608.065 366.561 590.34 366.561 570.138L367.621 47.3137C367.621 21.5394 350.97 0.672241 330.445 0.672241H235.532Z" fill="#11B482"/>
</svg>
