<svg width="1319" height="911" viewBox="0 0 1319 911" fill="none" xmlns="http://www.w3.org/2000/svg">
<path d="M843.111 0.0328979C792.63 0.0328979 743.4 15.4383 701.87 44.1995L659.748 73.3575L617.626 44.1995C576.096 15.4383 526.8 0.0328979 476.385 0.0328979H134.602C60.6908 0.0328979 0.732422 60.2661 0.732422 134.516V607.513C0.732422 665.763 37.5236 716.806 92.4141 735.186L647.572 907.952C651.389 909.142 655.272 909.737 659.221 910.134V910.266C659.221 910.266 659.616 910.266 659.748 910.2C659.945 910.2 660.077 910.2 660.275 910.266V910.134C664.223 909.737 668.107 909.142 671.924 907.952L1227.08 735.186C1281.97 716.872 1318.76 665.763 1318.76 607.513V134.516C1318.76 60.2 1258.81 0.0328979 1184.89 0.0328979H843.111Z" fill="#11B482"/>
</svg>
