<svg width="47" height="47" viewBox="0 0 47 47" fill="none" xmlns="http://www.w3.org/2000/svg">
<circle cx="23.3723" cy="23.1938" r="22.981" fill="white"/>
<path d="M23.3723 23.4301C27.5667 23.4301 30.9669 20.0298 30.9669 15.8354C30.9669 11.641 27.5667 8.24072 23.3723 8.24072C19.1779 8.24072 15.7776 11.641 15.7776 15.8354C15.7776 20.0298 19.1779 23.4301 23.3723 23.4301Z" fill="#11B482"/>
<path d="M31.8022 25.5137H14.9423C11.9338 25.5137 9.49487 27.9526 9.49487 30.9612V32.3366C9.49487 35.3452 11.9338 37.7841 14.9423 37.7841H31.8022C34.8108 37.7841 37.2497 35.3452 37.2497 32.3366V30.9612C37.2497 27.9526 34.8108 25.5137 31.8022 25.5137Z" fill="#11B482"/>
</svg>
