<svg width="36" height="36" viewBox="0 0 36 36" fill="none" xmlns="http://www.w3.org/2000/svg">
<path d="M1.21002 35.0367L1.24583 35.4138H1.62466H35.105H35.4852L35.5198 35.0352C36.0955 28.7287 31.3754 22.7564 25.2614 21.495C23.6425 21.1607 20.703 21.0024 17.8078 21.038C14.9194 21.0736 11.9907 21.3029 10.4092 21.7754C4.86663 23.4311 0.651709 29.157 1.21002 35.0367ZM25.5325 23.7783L25.5326 23.7783C29.7457 24.993 33.1164 28.895 33.3759 33.2838H3.3482C3.56814 29.1082 6.81069 25.2619 10.7159 23.9197L10.7161 23.9197C11.3853 23.6893 12.4616 23.507 13.7733 23.3812C15.076 23.2562 16.5816 23.1896 18.0925 23.18C21.1335 23.1607 24.1276 23.373 25.5325 23.7783ZM16.6361 1.11309L16.6359 1.11311C14.703 1.37622 12.9176 2.5014 11.5868 4.00613C10.2558 5.51104 9.34763 7.43113 9.20409 9.33551L9.20407 9.3358C8.65248 16.7212 16.6199 21.8315 23.0682 18.0071C31.5687 12.9667 27.1775 -0.317984 16.6361 1.11309ZM25.2116 8.88407C25.8257 12.3251 24.1706 16.1159 19.9507 17.0156C17.5065 17.5365 15.5806 17.007 14.1875 15.9344C12.7849 14.8545 11.8879 13.1966 11.5695 11.4109C11.2511 9.62481 11.5178 7.74364 12.401 6.23271C13.278 4.73227 14.7733 3.57649 16.9692 3.23216C19.388 2.85303 21.2878 3.42577 22.6574 4.49424C24.0341 5.56819 24.9052 7.16686 25.2116 8.88407Z" fill="#B8B8B8" stroke="#B8B8B8" stroke-width="0.833"/>
</svg>
