<svg width="87" height="85" viewBox="0 0 87 85" fill="none" xmlns="http://www.w3.org/2000/svg">
<path d="M0.216744 21.5841C0.711167 20.4909 1.08855 19.3269 1.71912 18.3187C5.38311 12.4752 9.70872 7.15812 14.9109 2.57063C15.5606 1.99689 16.2939 1.51288 17.0033 1.00762C19.2962 -0.623857 21.3384 -0.168177 23.4045 1.52469C24.2118 2.18814 24.8376 3.0995 25.4419 3.96836C28.8766 8.88404 32.2014 13.8682 34.7834 19.2938C37.0405 24.0372 36.6799 25.7371 32.7054 29.1535C31.5947 30.1074 30.5032 31.0872 29.3447 31.9821C28.7572 32.4354 28.7213 32.8745 28.9602 33.4955C32.617 43.0105 38.9561 50.1786 48.1209 54.8558C49.5635 55.5924 51.0946 56.1591 52.5826 56.8084C53.1583 57.0586 53.5763 56.9831 54.0157 56.4542C55.3032 54.9054 56.6192 53.3754 58.0022 51.9116C60.2856 49.5009 62.0746 49.1137 65.1821 50.3415C70.5324 52.457 75.307 55.583 80.0816 58.7043C81.3093 59.507 82.5466 60.3003 83.7074 61.1904C86.0792 63.0132 87.6127 65.9503 84.9686 69.2605C81.5291 73.5623 77.354 77.0613 72.9519 80.3172C71.1438 81.6559 69.1566 82.7561 67.3007 84.0358C65.0865 85.5611 62.7649 84.8362 60.5101 84.3569C51.2546 82.3831 43.0978 78.0577 35.5238 72.5942C23.6959 64.0638 14.0176 53.6068 6.95476 40.8855C3.76847 35.1364 1.38951 29.0803 0.548748 22.5167C0.51292 22.2451 0.484258 21.9713 0.450819 21.6974C0.371998 21.6596 0.293177 21.6218 0.214355 21.5841H0.216744ZM80.4829 65.9408C80.1676 65.6788 79.9407 65.4639 79.6875 65.2821C74.569 61.5847 69.1183 58.4398 63.4122 55.7128C62.655 55.3516 62.2776 55.6042 61.8047 56.1355C60.0229 58.1447 58.2124 60.1303 56.3947 62.1065C55.6352 62.9329 54.6535 63.1902 53.5667 62.9565C52.831 62.7983 52.1049 62.5858 51.3884 62.3544C45.515 60.4609 40.3176 57.3915 35.7722 53.2928C29.5645 47.6924 25.0693 40.9941 22.8384 32.9029C22.461 31.5311 22.7142 30.4143 23.7508 29.4817C25.6903 27.7346 27.6393 25.9945 29.6194 24.2945C30.2285 23.7727 30.3885 23.3265 29.9753 22.5946C28.0979 19.2679 26.3424 15.8727 24.3886 12.5909C23.0032 10.2652 21.3719 8.08601 19.805 5.77219C14.5479 10.4352 10.1673 15.5492 6.48183 21.2464C6.28119 21.5557 6.29075 22.0657 6.34568 22.4624C7.12912 28.025 9.20952 33.1555 11.9133 38.0358C19.0669 50.9365 28.9888 61.3746 41.2443 69.6406C48.0898 74.2588 55.4083 77.9042 63.7322 79.1508C64.1574 79.2146 64.7068 79.1508 65.0579 78.9266C70.7402 75.3094 75.8564 71.0289 80.4781 65.9456L80.4829 65.9408Z" fill="white"/>
</svg>
