<svg width="74" height="73" viewBox="0 0 74 73" fill="none" xmlns="http://www.w3.org/2000/svg">
<path d="M0.221507 19.2257C0.6405 18.2993 0.960311 17.3129 1.49468 16.4586C4.59969 11.5065 8.26537 7.00063 12.6739 3.11301C13.2245 2.62681 13.8459 2.21664 14.447 1.78846C16.3902 0.405884 18.1208 0.792045 19.8717 2.22664C20.5559 2.78888 21.0862 3.5612 21.5983 4.29751C24.509 8.46324 27.3265 12.687 29.5146 17.2849C31.4274 21.3046 31.1218 22.7452 27.7536 25.6404C26.8124 26.4487 25.8874 27.2791 24.9057 28.0374C24.4078 28.4216 24.3774 28.7937 24.5798 29.3199C27.6787 37.3833 33.0508 43.4578 40.8173 47.4215C42.0399 48.0457 43.3374 48.5259 44.5984 49.0762C45.0862 49.2882 45.4404 49.2242 45.8129 48.776C46.9039 47.4635 48.0191 46.1669 49.1911 44.9264C51.1262 42.8836 52.6423 42.5554 55.2756 43.5959C59.8097 45.3886 63.8559 48.0377 67.9021 50.6828C68.9425 51.3631 69.991 52.0354 70.9747 52.7897C72.9847 54.3344 74.2842 56.8234 72.0435 59.6286C69.1287 63.2741 65.5906 66.2393 61.8601 68.9985C60.3278 70.1329 58.6438 71.0653 57.071 72.1498C55.1947 73.4423 53.2272 72.828 51.3164 72.4219C43.473 70.7492 36.5606 67.0837 30.1421 62.4537C20.1186 55.2247 11.9169 46.363 5.93156 35.5825C3.23138 30.7105 1.21535 25.5784 0.50286 20.0161C0.472498 19.786 0.448208 19.5539 0.419871 19.3218C0.353075 19.2898 0.286278 19.2577 0.219482 19.2257H0.221507ZM68.2422 56.8154C67.975 56.5933 67.7827 56.4112 67.5681 56.2571C63.2304 53.1238 58.6114 50.4587 53.7758 48.1478C53.1341 47.8416 52.8143 48.0557 52.4135 48.5059C50.9035 50.2086 49.3692 51.8913 47.8289 53.566C47.1852 54.2663 46.3533 54.4844 45.4323 54.2863C44.8089 54.1523 44.1936 53.9722 43.5863 53.7761C38.609 52.1714 34.2045 49.5704 30.3526 46.0969C25.0919 41.3509 21.2825 35.6746 19.392 28.8177C19.0722 27.6552 19.2867 26.7088 20.1652 25.9185C21.8088 24.4379 23.4605 22.9633 25.1385 21.5227C25.6546 21.0805 25.7902 20.7023 25.4401 20.0821C23.8491 17.2629 22.3614 14.3857 20.7056 11.6045C19.5316 9.63373 18.1492 7.78696 16.8213 5.82614C12.3662 9.77779 8.654 14.1116 5.53078 18.9396C5.36076 19.2017 5.36885 19.6339 5.41541 19.97C6.07932 24.684 7.84233 29.0318 10.1336 33.1675C16.1959 44.1001 24.6041 52.9458 34.9899 59.9507C40.791 63.8643 46.9929 66.9536 54.047 68.01C54.4073 68.0641 54.8728 68.01 55.1704 67.82C59.9858 64.7547 64.3214 61.1272 68.2381 56.8194L68.2422 56.8154Z" fill="white"/>
<path d="M53.9157 3.30899C63.3441 3.31699 70.8779 10.8761 70.8617 20.3161C70.8475 29.4299 63.1376 36.937 53.8104 36.917C44.4246 36.899 36.8523 29.3438 36.8625 20.0059C36.8726 10.7981 44.5298 3.29899 53.9157 3.30699V3.30899ZM53.7639 32.117C60.4354 32.151 65.9511 26.8168 66.0038 20.2841C66.0584 13.5873 60.6459 8.139 53.9076 8.10699C47.2705 8.07498 41.7447 13.4632 41.7163 19.9919C41.688 26.6447 47.0924 32.085 53.7639 32.117Z" fill="white"/>
<path d="M56.2171 22.467H51.4888V10.594H56.2171V22.467Z" fill="white"/>
<path d="M56.288 27.305C56.294 28.6215 55.1808 29.722 53.8509 29.714C52.5251 29.706 51.4159 28.5855 51.4402 27.277C51.4625 25.9924 52.5251 24.942 53.8266 24.92C55.1545 24.898 56.2839 25.9904 56.29 27.305H56.288Z" fill="white"/>
</svg>
