<svg width="31" height="42" viewBox="0 0 31 42" fill="none" xmlns="http://www.w3.org/2000/svg">
<path d="M18.6845 2.47046C18.3133 2.06014 18.4869 1.33293 19.0092 1.16624C19.5316 0.999555 21.248 1.70661 21.8187 1.96214C30.1003 5.67329 33.2174 16.3259 28.2989 24.142C27.5869 25.2731 26.6522 26.2439 25.8258 27.256L30.5484 35.89C30.6012 36.7463 30.1871 36.9094 29.4348 36.8434L24.2882 35.7837L22.3437 41.3083C22.028 41.7663 21.4663 41.8176 21.0673 41.4485L15.9046 32.1083L15.7051 31.9911L10.732 41.0501C10.4047 41.7562 9.63814 41.9925 9.1954 41.2653L7.29113 35.748L1.85292 36.8837C1.2769 36.8993 0.918226 36.4716 1.04076 35.8882L5.76342 27.2578C5.32335 26.6524 4.73481 26.134 4.25807 25.5305C-1.13094 18.7145 0.149006 8.63799 7.09077 3.52372C8.24281 2.6747 10.6292 1.3485 12.0156 1.14701C13.0156 1.00139 13.3894 2.04732 12.758 2.54922C12.4431 2.79926 11.0505 3.1418 10.521 3.3726C-3.02537 9.29284 1.79389 30.3288 16.469 29.521C30.6951 28.7379 33.8704 8.49969 20.6228 3.18668C20.1827 3.00991 18.9296 2.74247 18.6845 2.47046ZM14.4529 31.0752C11.8027 30.8004 9.23475 29.8205 7.07199 28.2406L3.36184 34.9201L7.62207 34.0106L8.31348 34.2002L10.1131 38.8584L14.452 31.0752H14.4529ZM28.2273 34.9201L24.5163 28.2378C22.3339 29.8205 19.8071 30.795 17.1363 31.0752L21.4743 38.8574L23.0601 34.4383C23.2149 34.137 23.5396 33.9447 23.875 34.0124L28.2264 34.9201H28.2273Z" fill="#B8B8B8"/>
<path d="M14.8823 3.90015C24.3186 3.16378 30.7175 13.6515 25.8848 22.0355C21.2793 30.0247 9.78573 29.7866 5.46199 21.6435C1.40033 13.9922 6.45751 4.55775 14.8823 3.90015ZM14.5245 5.54873C8.91633 6.0836 4.88866 11.8344 5.71154 17.4488C6.87074 25.3565 16.2436 29.1308 22.2766 23.9277C30.0287 17.2418 24.7694 4.57149 14.5245 5.54873Z" fill="#B8B8B8"/>
<path d="M15.5907 0.685408C16.6667 0.441784 16.867 1.96947 16.0889 2.20485C14.8975 2.56571 14.6229 0.903387 15.5907 0.685408Z" fill="#B8B8B8"/>
<path d="M13.1864 12.4664L15.0942 8.51343C15.4082 8.00145 16.0146 7.95932 16.4091 8.41818L18.3885 12.4361C19.6756 12.7274 21.1514 12.7503 22.417 13.0736C23.1621 13.2641 23.4984 13.6387 23.0798 14.4007L20.0128 17.5825L20.7167 21.8743C20.7283 22.4449 20.197 22.9285 19.6371 22.6958L15.8322 20.7258C15.7275 20.7056 15.6443 20.7642 15.5513 20.7954C14.4431 21.1672 12.9941 22.4183 11.9503 22.6967C11.4771 22.8231 11.0523 22.7196 10.893 22.2168L11.5675 17.5751L8.49952 14.4089C8.11759 13.9602 8.32868 13.407 8.79469 13.1469L13.1837 12.4664H13.1864ZM20.714 14.4062C19.9278 14.223 18.0226 14.2249 17.4082 13.8072C17.0593 13.57 15.8483 10.6328 15.7069 10.7427C15.3787 11.3298 14.622 13.483 14.1837 13.809C13.6533 14.2038 11.6006 14.2368 10.8761 14.4062C10.8358 14.5646 10.9405 14.5894 11.0093 14.681C11.4297 15.2424 13.0495 16.521 13.1649 17.0568C13.3188 17.7711 12.7088 19.6212 12.664 20.4492C12.8161 20.5756 15.2302 18.9929 15.749 18.9764C15.9109 18.9709 16.0701 18.9838 16.2177 19.0552L18.8339 20.4501C18.9913 20.2312 18.2346 17.5797 18.4278 16.9643C18.5656 16.5265 20.1908 15.2003 20.5799 14.68C20.6487 14.5885 20.7534 14.5637 20.7131 14.4053L20.714 14.4062Z" fill="#B8B8B8"/>
</svg>
